<svg width="19" height="19" viewBox="0 0 19 19" fill="none"
  xmlns="http://www.w3.org/2000/svg" class="logo__Svg-sc-llynk2-0 jTzpln">
  <path d="M9.91872 0.834347C10.0618 1.07274 10.1333 1.38266 10.1333 1.71641V6.96114L12.8987 9.72655V0.238355C12.9702 0.238355 13.2086 0.214515 13.6139 0.214515C14.5675 0.214515 15.2826 0.476752 15.7356 1.02506C16.1886 1.57338 16.4508 2.4316 16.4508 3.55207C16.4508 4.50566 16.2601 5.29237 15.9025 5.9122C15.4734 6.67507 14.5675 7.08034 13.2324 7.1757C14.5198 7.2949 15.4972 7.2949 16.1647 7.12802C16.8561 6.96114 17.4521 6.67507 17.9527 6.26979C18.5487 5.76916 18.9063 4.98245 18.9778 3.93351C19.0732 2.86072 18.8586 2.00249 18.358 1.38266C17.9289 0.834347 17.3567 0.476752 16.6177 0.286034C15.8786 0.0953167 14.8774 0.0237976 13.6139 0.0476373L11.1107 0.071477L8.36914 0.142996C8.65522 0.142996 8.96513 0.214515 9.29889 0.357553C9.56112 0.429072 9.77568 0.59595 9.91872 0.834347Z" fill="#ffffff"></path>
  <path d="M8.27237 8.70156C7.53334 8.51084 6.53207 8.43932 5.26857 8.46316L2.7654 8.53468L0 8.6062C0.286076 8.6062 0.595992 8.67772 0.929748 8.82076C1.19198 8.89228 1.3827 9.05916 1.54958 9.29755C1.69262 9.53595 1.76414 9.84587 1.76414 10.1796V15.4243L4.52954 18.1898V8.67772C4.60106 8.67772 4.83946 8.65388 5.24473 8.65388C6.19832 8.65388 6.91351 8.91612 7.36646 9.46443C7.84325 10.0127 8.08165 10.871 8.08165 11.9914C8.08165 12.945 7.89093 13.7317 7.53334 14.3516C7.10422 15.1144 6.19832 15.5197 4.86329 15.6151C6.15064 15.7343 7.12806 15.7343 7.79558 15.5674C8.48693 15.4005 9.08292 15.1144 9.58355 14.7092C10.1795 14.2085 10.5371 13.4218 10.6087 12.3729C10.704 11.3001 10.4895 10.4419 9.98883 9.82203C9.58355 9.24987 8.98756 8.89228 8.27237 8.70156Z" fill="#ffffff"></path>
  <path d="M17.0445 16.0917V15.4242L14.2791 12.6826V16.0917C14.2791 17.0453 13.9692 17.6651 13.3493 17.9273C12.9202 18.1181 12.5865 18.2134 12.3242 18.2134H18.9993C18.7371 18.2134 18.4033 18.1181 17.9504 17.9273C17.3544 17.6651 17.0445 17.0691 17.0445 16.0917Z" fill="#41C994"></path>
  <path d="M5.62616 5.24473C5.00633 4.98249 4.69642 4.3865 4.69642 3.40907V2.74156L1.95485 0V3.40907C1.95485 4.36266 1.64494 4.98249 1.02511 5.24473C0.595992 5.43545 0.262236 5.53081 0 5.53081H6.67511C6.43671 5.53081 6.07912 5.43545 5.62616 5.24473Z" fill="#41C994"></path>
</svg>